<svg width="21" height="13" viewBox="0 0 21 13" fill="none" xmlns="http://www.w3.org/2000/svg">
<path d="M19.875 9.14378L11.8312 1.19378C11.6569 1.01804 11.4496 0.878552 11.2211 0.783361C10.9926 0.68817 10.7475 0.63916 10.5 0.63916C10.2525 0.63916 10.0074 0.68817 9.77891 0.783361C9.55043 0.878552 9.34305 1.01804 9.16874 1.19378L1.21875 9.14378C1.043 9.31809 0.903515 9.52546 0.808324 9.75395C0.713132 9.98244 0.664124 10.2275 0.664124 10.475C0.664124 10.7226 0.713132 10.9676 0.808324 11.1961C0.903515 11.4246 1.043 11.632 1.21875 11.8063C1.57005 12.1555 2.04527 12.3515 2.54062 12.3515C3.03597 12.3515 3.51119 12.1555 3.86249 11.8063L10.5 5.16878L17.1375 11.8063C17.4867 12.1527 17.9581 12.348 18.45 12.35C18.6968 12.3515 18.9414 12.3042 19.1698 12.2109C19.3983 12.1175 19.606 11.9801 19.7812 11.8063C19.9633 11.6382 20.1102 11.4358 20.2135 11.2107C20.3168 10.9855 20.3745 10.7421 20.3832 10.4946C20.3919 10.247 20.3515 10.0002 20.2643 9.76832C20.1771 9.53647 20.0447 9.3242 19.875 9.14378Z" fill="#DFD3FF"/>
</svg>
