<svg width="25" height="28" viewBox="0 0 25 28" fill="none" xmlns="http://www.w3.org/2000/svg">
<path d="M23.3751 8.28291L15.1251 1.05041C14.3688 0.373969 13.3898 0 12.3751 0C11.3605 0 10.3814 0.373969 9.62513 1.05041L1.37513 8.28291C0.938387 8.67351 0.589868 9.15267 0.352779 9.68849C0.11569 10.2243 -0.00452727 10.8045 0.000130342 11.3904V23.4079C0.000130342 24.5019 0.434727 25.5511 1.20831 26.3247C1.9819 27.0983 3.03111 27.5329 4.12513 27.5329H20.6251C21.7191 27.5329 22.7684 27.0983 23.5419 26.3247C24.3155 25.5511 24.7501 24.5019 24.7501 23.4079V11.3767C24.7528 10.7931 24.6317 10.2155 24.3946 9.68222C24.1576 9.14891 23.8101 8.67197 23.3751 8.28291ZM15.1251 24.7829H9.62513V17.9079C9.62513 17.5432 9.77 17.1935 10.0279 16.9356C10.2857 16.6778 10.6355 16.5329 11.0001 16.5329H13.7501C14.1148 16.5329 14.4645 16.6778 14.7224 16.9356C14.9803 17.1935 15.1251 17.5432 15.1251 17.9079V24.7829ZM22.0001 23.4079C22.0001 23.7726 21.8553 24.1223 21.5974 24.3802C21.3395 24.638 20.9898 24.7829 20.6251 24.7829H17.8751V17.9079C17.8751 16.8139 17.4405 15.7647 16.6669 14.9911C15.8934 14.2175 14.8441 13.7829 13.7501 13.7829H11.0001C9.90611 13.7829 8.8569 14.2175 8.08331 14.9911C7.30973 15.7647 6.87513 16.8139 6.87513 17.9079V24.7829H4.12513C3.76046 24.7829 3.41072 24.638 3.15286 24.3802C2.895 24.1223 2.75013 23.7726 2.75013 23.4079V11.3767C2.75038 11.1814 2.7922 10.9885 2.8728 10.8107C2.95341 10.6329 3.07096 10.4743 3.21763 10.3454L11.4676 3.12666C11.7186 2.90622 12.0411 2.78465 12.3751 2.78465C12.7091 2.78465 13.0317 2.90622 13.2826 3.12666L21.5326 10.3454C21.6793 10.4743 21.7968 10.6329 21.8775 10.8107C21.9581 10.9885 21.9999 11.1814 22.0001 11.3767V23.4079Z" fill="#4622AF"/>
</svg>
