<svg width="50" height="46" viewBox="0 0 50 46" fill="none" xmlns="http://www.w3.org/2000/svg">
<path d="M3 3H16.3333C18.6908 3 20.9517 3.9365 22.6187 5.60349C24.2857 7.27048 25.2222 9.53141 25.2222 11.8889V43C25.2222 41.2319 24.5198 39.5362 23.2696 38.286C22.0194 37.0357 20.3237 36.3333 18.5556 36.3333H3V3Z" stroke="white" stroke-width="5" stroke-linecap="round" stroke-linejoin="round"/>
<path d="M47.4444 3H34.1111C31.7536 3 29.4927 3.9365 27.8257 5.60349C26.1587 7.27048 25.2222 9.53141 25.2222 11.8889V43C25.2222 41.2319 25.9246 39.5362 27.1748 38.286C28.4251 37.0357 30.1208 36.3333 31.8889 36.3333H47.4444V3Z" stroke="white" stroke-width="5" stroke-linecap="round" stroke-linejoin="round"/>
</svg>
