<svg width="29" height="29" viewBox="0 0 29 29" fill="none" xmlns="http://www.w3.org/2000/svg">
<path d="M27.1087 0.832484C26.1231 0.662717 25.1251 0.575332 24.125 0.571234C20.7127 0.568437 17.3717 1.5469 14.5 3.38998C11.6209 1.5711 8.28039 0.616651 4.87499 0.639984C3.87488 0.644082 2.87685 0.731467 1.89124 0.901234C1.5684 0.956892 1.27604 1.12599 1.06681 1.37807C0.857582 1.63016 0.745232 1.94866 0.749994 2.27623V18.7762C0.747049 18.9783 0.788668 19.1785 0.871888 19.3626C0.955108 19.5467 1.07789 19.7102 1.23148 19.8415C1.38508 19.9728 1.56572 20.0686 1.76056 20.1221C1.95539 20.1757 2.15963 20.1856 2.35874 20.1512C4.32915 19.8101 6.3479 19.8667 8.29608 20.3177C10.2443 20.7687 12.0825 21.6051 13.7025 22.7775L13.8675 22.8737H14.0187C14.1712 22.9373 14.3348 22.97 14.5 22.97C14.6652 22.97 14.8288 22.9373 14.9812 22.8737H15.1325L15.2975 22.7775C16.9062 21.5789 18.7391 20.7154 20.6877 20.2383C22.6363 19.7612 24.6608 19.6802 26.6412 20C26.8404 20.0344 27.0446 20.0244 27.2394 19.9709C27.4343 19.9174 27.6149 19.8215 27.7685 19.6903C27.9221 19.559 28.0449 19.3955 28.1281 19.2113C28.2113 19.0272 28.2529 18.827 28.25 18.625V2.12498C28.2357 1.8117 28.1147 1.51271 27.9071 1.27762C27.6996 1.04254 27.4179 0.885472 27.1087 0.832484ZM13.125 19.1062C10.5811 17.7679 7.74946 17.0695 4.87499 17.0712H3.49999V3.32123C3.95795 3.29484 4.41704 3.29484 4.87499 3.32123C7.8084 3.31799 10.6778 4.17881 13.125 5.79623V19.1062ZM25.5 17.1262H24.125C21.2505 17.1245 18.4189 17.8229 15.875 19.1612V5.79623C18.3222 4.17881 21.1916 3.31799 24.125 3.32123C24.5829 3.29484 25.042 3.29484 25.5 3.32123V17.1262ZM27.1087 22.8325C26.1231 22.6627 25.1251 22.5753 24.125 22.5712C20.7127 22.5684 17.3717 23.5469 14.5 25.39C11.6283 23.5469 8.28724 22.5684 4.87499 22.5712C3.87488 22.5753 2.87685 22.6627 1.89124 22.8325C1.71226 22.8609 1.54065 22.9244 1.38629 23.0194C1.23193 23.1143 1.09787 23.2388 0.991811 23.3858C0.885751 23.5327 0.809787 23.6992 0.768287 23.8756C0.726787 24.052 0.720571 24.2349 0.749994 24.4137C0.81987 24.7708 1.02842 25.0856 1.32996 25.2892C1.63149 25.4928 2.00144 25.5686 2.35874 25.5C4.32915 25.1588 6.3479 25.2154 8.29608 25.6665C10.2443 26.1175 12.0825 26.9538 13.7025 28.1262C13.9354 28.292 14.2141 28.3811 14.5 28.3811C14.7859 28.3811 15.0646 28.292 15.2975 28.1262C16.9175 26.9538 18.7557 26.1175 20.7039 25.6665C22.6521 25.2154 24.6708 25.1588 26.6412 25.5C26.9986 25.5686 27.3685 25.4928 27.67 25.2892C27.9716 25.0856 28.1801 24.7708 28.25 24.4137C28.2794 24.2349 28.2732 24.052 28.2317 23.8756C28.1902 23.6992 28.1142 23.5327 28.0082 23.3858C27.9021 23.2388 27.7681 23.1143 27.6137 23.0194C27.4593 22.9244 27.2877 22.8609 27.1087 22.8325Z" fill="#DFD3FF"/>
</svg>
